<svg 
 xmlns="http://www.w3.org/2000/svg"
 xmlns:xlink="http://www.w3.org/1999/xlink"
 width="19px" height="17px">
<path fill-rule="evenodd"  fill="rgb(235, 235, 235)"
 d="M16.511,3.524 L18.358,3.155 C18.358,3.155 16.811,4.905 16.511,5.000 C16.508,5.001 16.505,4.998 16.502,4.998 C16.463,5.851 16.511,6.107 16.511,6.107 C12.982,21.317 -0.007,14.593 -0.007,14.593 C4.719,14.718 5.140,12.748 5.140,12.748 C2.372,12.328 1.839,10.534 1.839,10.534 C2.779,10.965 3.306,10.165 3.306,10.165 C0.319,9.389 0.738,6.476 0.738,6.476 C1.237,6.934 2.053,7.109 2.539,7.175 C2.201,6.781 -0.587,3.419 1.105,1.679 C1.105,1.679 3.141,5.363 8.533,5.715 L8.894,5.624 C8.838,5.363 8.808,5.093 8.808,4.816 C8.808,2.676 10.533,0.941 12.660,0.941 C15.224,0.941 15.778,2.417 15.778,2.417 L17.612,1.310 C17.612,1.310 17.411,3.160 16.511,3.524 Z"/>
</svg>